<svg width="44" height="34" viewBox="0 0 44 34" fill="none" xmlns="http://www.w3.org/2000/svg">
<path d="M14.0308 10.8826H0.738462C0.330092 10.8826 0 11.1993 0 11.5911V15.8421C0 16.2339 0.330092 16.5506 0.738462 16.5506H1.47692V32.8462C1.47692 33.238 1.80702 33.5547 2.21538 33.5547H12.5538C12.9622 33.5547 13.2923 33.238 13.2923 32.8462V30.0122V19.3846V16.5506H14.0308C14.4391 16.5506 14.7692 16.2339 14.7692 15.8421V11.5911C14.7692 11.1993 14.4391 10.8826 14.0308 10.8826ZM5.90769 24.3441V22.9271H10.3385V21.5101H5.90769V20.0931H11.8154V29.3036H5.90769V25.7611H7.38462V24.3441H5.90769ZM11.8154 18.6761H5.16923C4.76086 18.6761 4.43077 18.9928 4.43077 19.3846V30.0122C4.43077 30.404 4.76086 30.7207 5.16923 30.7207H11.8154V32.1377H2.95385V16.5506H11.8154V18.6761ZM13.2923 15.1336H12.5538H2.21538H1.47692V12.2996H13.2923V15.1336Z" fill="#2B7FFF"/>
<path d="M23.8154 11.0154V5.83559C23.8154 5.43221 23.4853 5.10614 23.0769 5.10614H22.3385V1.4589H23.8154V0H15.6923V1.4589H20.8615V5.10614H20.1231C19.7147 5.10614 19.3846 5.43221 19.3846 5.83559V11.0154C17.7017 11.3546 16.4308 12.8274 16.4308 14.589V16.0479V29.9074V32.8252C16.4308 33.2286 16.7609 33.5547 17.1692 33.5547H26.0308C26.4391 33.5547 26.7692 33.2286 26.7692 32.8252V29.9074V16.0479V14.589C26.7692 12.8281 25.4983 11.3546 23.8154 11.0154ZM20.8615 6.56504H22.3385V10.9417H20.8615V6.56504ZM20.1231 12.4006H23.0769C24.2983 12.4006 25.2923 13.3825 25.2923 14.589V15.3184H17.9077V14.589C17.9077 13.3825 18.9017 12.4006 20.1231 12.4006ZM25.2923 29.178H17.9077V27.7191H20.8615V26.2602H17.9077V16.7773H25.2923V29.178ZM17.9077 32.0958V30.6369H25.2923V32.0958H17.9077Z" fill="#2B7FFF"/>
<path d="M42.6923 9.97571H30.2308C29.8479 9.97571 29.5385 10.2951 29.5385 10.6902V32.8401C29.5385 33.2353 29.8479 33.5547 30.2308 33.5547H42.6923C43.0752 33.5547 43.3846 33.2353 43.3846 32.8401V10.6902C43.3846 10.2951 43.0752 9.97571 42.6923 9.97571ZM42 32.1256H30.9231V11.4047H42V32.1256Z" fill="#2B7FFF"/>
<path d="M11.0769 24.4858H9.23077V25.3927H11.0769V24.4858Z" fill="#2B7FFF"/>
<path d="M24 26.2996H22.1538V28.1134H24V26.2996Z" fill="#2B7FFF"/>
<path d="M21.6923 24.4858C23.4741 24.4858 24.9231 23.0623 24.9231 21.3117C24.9231 19.5612 23.4741 18.1377 21.6923 18.1377C19.9105 18.1377 18.4615 19.5612 18.4615 21.3117C18.4615 23.0623 19.9105 24.4858 21.6923 24.4858ZM21.6923 19.7247C22.5832 19.7247 23.3077 20.4365 23.3077 21.3117C23.3077 22.187 22.5832 22.8988 21.6923 22.8988C20.8014 22.8988 20.0769 22.187 20.0769 21.3117C20.0769 20.4365 20.8014 19.7247 21.6923 19.7247Z" fill="#2B7FFF"/>
<path d="M34.7308 17.2308H38.1923C39.5285 17.2308 40.6154 16.2138 40.6154 14.9636C40.6154 13.7134 39.5285 12.6964 38.1923 12.6964H34.7308C33.3946 12.6964 32.3077 13.7134 32.3077 14.9636C32.3077 16.2138 33.3946 17.2308 34.7308 17.2308ZM39.2308 14.9636C39.2308 15.4993 38.7648 15.9352 38.1923 15.9352H37.1538V13.9919H38.1923C38.7648 13.9919 39.2308 14.4279 39.2308 14.9636ZM34.7308 13.9919H35.7692V15.9352H34.7308C34.1582 15.9352 33.6923 15.4993 33.6923 14.9636C33.6923 14.4279 34.1582 13.9919 34.7308 13.9919Z" fill="#2B7FFF"/>
<path d="M34.7308 24.4858H38.1923C39.5285 24.4858 40.6154 23.2654 40.6154 21.7652C40.6154 20.2649 39.5285 19.0445 38.1923 19.0445H34.7308C33.3946 19.0445 32.3077 20.2649 32.3077 21.7652C32.3077 23.2654 33.3946 24.4858 34.7308 24.4858ZM39.2308 21.7652C39.2308 22.408 38.7648 22.9312 38.1923 22.9312H37.1538V20.5992H38.1923C38.7648 20.5992 39.2308 21.1223 39.2308 21.7652ZM34.7308 20.5992H35.7692V22.9312H34.7308C34.1582 22.9312 33.6923 22.408 33.6923 21.7652C33.6923 21.1223 34.1582 20.5992 34.7308 20.5992Z" fill="#2B7FFF"/>
<path d="M34.7308 30.834H38.1923C39.5285 30.834 40.6154 29.6136 40.6154 28.1134C40.6154 26.6131 39.5285 25.3927 38.1923 25.3927H34.7308C33.3946 25.3927 32.3077 26.6131 32.3077 28.1134C32.3077 29.6136 33.3946 30.834 34.7308 30.834ZM39.2308 28.1134C39.2308 28.7562 38.7648 29.2794 38.1923 29.2794H37.1538V26.9474H38.1923C38.7648 26.9474 39.2308 27.4705 39.2308 28.1134ZM34.7308 26.9474H35.7692V29.2794H34.7308C34.1582 29.2794 33.6923 28.7562 33.6923 28.1134C33.6923 27.4705 34.1582 26.9474 34.7308 26.9474Z" fill="#2B7FFF"/>
</svg>
